# xmcd
#
# Track frame offsets:
#   150
#   16352
#   35721
#   47290
#   61869
#   80047
#   91783
#   105846
#   122576
#   133358
#   145919
#
# Disc length: 2110 seconds
#
# Revision: 0
# Processed by: cddbd v1.5.2PL0 Copyright (c) Steve Scherf et al.
# Submitted via: GXTranscoder 2.0.1939
#
DISCID=8a083c0b
DTITLE=Amy Winehouse - Back To Black
DYEAR=2006
DGENRE=R and B
TTITLE0=Rehab
TTITLE1=You Know I'm No Good
TTITLE2=Me and Mr. Jones
TTITLE3=Just Friends
TTITLE4=Back To Black
TTITLE5=Love Is A Loosing Game
TTITLE6=Tears Dry On Their Own
TTITLE7=Wake Up Alone
TTITLE8=Some Unholy War
TTITLE9=He Can Only Hold Her
TTITLE10=Addicted
EXTD=
EXTT0=
EXTT1=
EXTT2=
EXTT3=
EXTT4=
EXTT5=
EXTT6=
EXTT7=
EXTT8=
EXTT9=
EXTT10=
PLAYORDER=
